<?xml version="1.0" standalone="no"?>
<!DOCTYPE svg PUBLIC "-//W3C//DTD SVG 20010904//EN"
 "http://www.w3.org/TR/2001/REC-SVG-20010904/DTD/svg10.dtd">
<svg version="1.0" xmlns="http://www.w3.org/2000/svg"
 width="620.000000pt" height="700.000000pt" viewBox="0 0 620.000000 700.000000"
 preserveAspectRatio="xMidYMid meet">

<g transform="translate(0.000000,700.000000) scale(0.100000,-0.100000)"
fill="#000000" stroke="none">
<path d="M2960 6514 c-274 -23 -424 -47 -624 -99 -1117 -288 -1959 -1180
-2185 -2315 -44 -224 -55 -337 -55 -575 -1 -239 7 -321 50 -551 202 -1086 973
-1961 2023 -2298 686 -221 1375 -193 2066 83 127 51 371 180 498 264 376 249
695 582 926 970 67 111 178 344 224 467 123 331 185 647 194 995 6 239 -8 402
-57 645 -259 1292 -1278 2244 -2566 2395 -130 15 -411 26 -494 19z m505 -38
c658 -85 1245 -367 1695 -816 188 -187 270 -285 393 -472 252 -383 409 -796
478 -1258 20 -132 24 -194 24 -410 0 -218 -4 -276 -23 -400 -58 -366 -142
-632 -294 -935 -39 -77 -83 -159 -99 -183 -16 -24 -29 -45 -29 -48 0 -18 -169
-253 -255 -354 -82 -97 -268 -282 -365 -362 -220 -184 -553 -381 -805 -476
-125 -47 -224 -82 -264 -91 -20 -5 -79 -20 -131 -34 -578 -153 -1228 -106
-1820 130 -453 182 -855 473 -1169 848 -63 75 -85 105 -172 230 -160 231 -313
552 -390 820 -177 613 -172 1167 17 1765 140 441 393 858 719 1185 109 109
129 127 235 215 443 367 1028 600 1660 660 129 12 449 4 595 -14z"/>
<path d="M2960 6404 c-566 -41 -1047 -201 -1485 -495 -182 -122 -279 -203
-435 -359 -511 -514 -808 -1208 -837 -1955 -6 -152 5 -316 33 -495 188 -1227
1093 -2170 2309 -2409 434 -85 832 -71 1273 44 385 101 766 292 1080 542 119
95 334 309 426 423 540 675 758 1555 590 2380 -254 1245 -1223 2151 -2464
2305 -128 16 -392 26 -490 19z m-663 -190 c-3 -3 -12 -4 -19 -1 -8 3 -5 6 6 6
11 1 17 -2 13 -5z m-182 -37 c-16 -12 -10 -14 51 -15 136 -2 259 -14 281 -28
12 -8 33 -14 46 -14 12 0 28 -5 35 -12 9 -9 15 -9 24 0 20 20 51 14 88 -18 19
-17 45 -33 58 -36 12 -4 22 -10 22 -14 0 -5 20 -7 45 -6 24 2 42 0 40 -4 -8
-14 45 -21 66 -9 11 6 23 8 27 5 3 -3 -1 -6 -9 -7 -8 -1 -3 -5 11 -9 20 -7 16
-8 -25 -10 -250 -11 -641 -118 -900 -247 -254 -127 -457 -274 -655 -473 -294
-295 -500 -644 -620 -1046 -37 -124 -78 -321 -85 -408 -7 -81 -15 -84 -14 -5
1 35 -4 75 -10 89 l-11 25 5 -27 c4 -21 2 -26 -9 -22 -8 3 -12 12 -9 20 3 8
-7 38 -22 66 -16 29 -28 60 -29 68 -4 40 -28 89 -42 83 -18 -7 -20 53 -1 60 9
4 9 8 1 14 -7 4 -15 41 -19 82 -4 43 -14 81 -22 89 -14 14 -13 48 2 127 5 26
4 27 -4 8 -13 -30 -19 -29 -14 1 3 13 14 26 24 29 10 3 19 10 19 17 0 6 -4 8
-10 5 -5 -3 -10 3 -10 15 0 12 4 19 9 16 5 -3 12 1 15 10 3 8 2 12 -4 9 -12
-7 -12 -3 -4 20 6 13 9 14 16 3 7 -9 8 -8 4 5 -5 17 3 38 70 182 44 94 102
190 113 188 5 -2 8 3 5 10 -2 7 9 33 25 57 81 122 121 175 133 175 7 1 12 7
10 14 -4 19 82 120 238 281 78 79 242 220 250 215 5 -3 12 0 16 6 4 8 3 9 -4
5 -7 -4 -12 -5 -12 -2 0 2 19 18 43 34 23 16 79 55 124 86 50 34 88 54 95 50
7 -4 10 -3 5 1 -11 12 29 36 210 126 145 71 165 79 185 68 21 -11 22 -11 9 4
-12 15 -11 17 8 17 12 0 19 -4 16 -10 -9 -15 11 -12 24 4 9 11 9 15 -1 19 -7
2 0 2 16 -1 18 -2 26 0 22 6 -6 10 12 18 43 21 11 1 9 -3 -4 -12z m872 -163
c-3 -3 -12 -4 -19 -1 -8 3 -5 6 6 6 11 1 17 -2 13 -5z m499 -53 c209 -36 407
-92 579 -166 614 -264 1115 -805 1336 -1444 163 -470 186 -946 69 -1421 -47
-190 -163 -496 -183 -483 -6 3 -7 1 -3 -5 4 -6 -11 -43 -34 -83 -22 -39 -40
-73 -40 -76 0 -2 -37 -60 -81 -128 -49 -74 -86 -122 -93 -118 -6 3 -8 3 -4 -2
4 -4 -4 -21 -17 -37 -14 -16 -25 -34 -25 -40 0 -6 -8 -7 -17 -4 -10 4 -14 4
-10 0 9 -9 -52 -86 -63 -79 -5 3 -12 0 -16 -6 -4 -8 -3 -9 4 -5 7 4 12 4 12 0
0 -15 -206 -204 -217 -199 -7 2 -15 0 -18 -5 -4 -6 -1 -10 6 -10 7 0 -2 -12
-21 -28 -18 -15 -46 -39 -62 -55 -28 -27 -44 -36 -34 -18 4 5 -3 7 -15 4 -13
-4 -17 -8 -9 -13 7 -4 2 -13 -14 -23 -14 -10 -28 -17 -31 -17 -3 0 -11 -4 -18
-10 -51 -42 -77 -60 -107 -75 -18 -10 -40 -24 -48 -32 -8 -8 -21 -12 -28 -9
-8 3 -14 2 -14 -2 0 -13 -100 -63 -112 -56 -7 4 -8 3 -4 -4 4 -7 -4 -14 -21
-18 -15 -4 -34 -12 -42 -18 -8 -6 -17 -10 -20 -10 -3 1 -23 -7 -43 -17 -37
-19 -248 -90 -258 -87 -3 1 -15 -4 -27 -10 -42 -23 -367 -77 -498 -83 -148 -7
-379 1 -495 17 -63 9 -126 18 -140 20 -172 23 -506 142 -700 251 -229 129
-361 227 -549 408 -418 404 -669 909 -732 1475 -16 149 -14 461 6 605 72 539
299 1016 665 1399 382 398 914 661 1480 731 169 21 546 13 706 -14z m-3099
-1673 c-3 -8 -6 -5 -6 6 -1 11 2 17 5 13 3 -3 4 -12 1 -19z m0 -70 c-3 -8 -6
-5 -6 6 -1 11 2 17 5 13 3 -3 4 -12 1 -19z m202 -445 c-1 -37 -1 -37 -8 -8 -7
28 -5 45 5 45 2 0 3 -17 3 -37z"/>
<path d="M2145 6140 c-3 -5 -1 -10 4 -10 6 0 11 5 11 10 0 6 -2 10 -4 10 -3 0
-8 -4 -11 -10z"/>
<path d="M2760 6021 c8 -5 26 -12 40 -15 l25 -7 -25 15 c-14 9 -32 15 -40 15
-13 0 -13 -1 0 -8z"/>
<path d="M2637 5989 c7 -7 15 -10 18 -7 3 3 -2 9 -12 12 -14 6 -15 5 -6 -5z"/>
<path d="M462 4495 c0 -16 2 -22 5 -12 2 9 2 23 0 30 -3 6 -5 -1 -5 -18z"/>
<path d="M612 3935 c0 -16 2 -22 5 -12 2 9 2 23 0 30 -3 6 -5 -1 -5 -18z"/>
<path d="M2915 5630 c-16 -4 -50 -8 -75 -9 -55 -1 -280 -45 -335 -64 -30 -11
-39 -19 -37 -33 2 -11 66 -154 141 -319 76 -165 209 -459 296 -653 87 -194
161 -349 165 -345 4 4 33 69 65 143 81 191 281 623 450 975 69 143 91 200 75
190 -5 -3 -51 4 -102 16 -51 12 -99 22 -106 22 -7 0 -10 7 -7 14 3 8 5 17 5
19 0 2 7 4 16 4 14 0 15 -2 3 -17 -13 -15 -12 -15 8 -5 15 9 36 9 74 2 28 -6
54 -10 57 -10 2 0 -2 -8 -9 -17 -11 -15 -11 -16 1 -5 8 6 22 12 32 12 9 0 16
-6 14 -12 -1 -7 -1 -10 1 -5 3 4 14 7 26 7 37 0 12 9 -91 35 -123 30 -138 31
-145 4 -5 -17 -11 -19 -39 -14 -18 3 -47 7 -64 8 -21 1 -30 6 -27 15 6 14 -13
16 -22 2 -3 -5 -11 -10 -17 -10 -7 0 -6 5 2 15 8 9 26 13 58 11 60 -5 60 -5
42 -16 -13 -8 -12 -10 3 -10 9 0 17 5 17 10 0 6 10 11 23 11 12 1 -9 7 -48 15
-80 15 -405 25 -450 14z m262 -16 c-3 -3 -12 -4 -19 -1 -8 3 -5 6 6 6 11 1 17
-2 13 -5z m83 -4 c0 -5 -7 -7 -15 -4 -8 4 -15 8 -15 10 0 2 7 4 15 4 8 0 15
-4 15 -10z m-193 -16 c-3 -3 -12 -4 -19 -1 -8 3 -5 6 6 6 11 1 17 -2 13 -5z
m70 0 c-3 -3 -12 -4 -19 -1 -8 3 -5 6 6 6 11 1 17 -2 13 -5z m108 -4 c3 -5 1
-10 -4 -10 -6 0 -11 5 -11 10 0 6 2 10 4 10 3 0 8 -4 11 -10z m70 -149 c33 -5
74 -15 90 -22 17 -7 37 -11 45 -10 8 2 12 0 8 -4 -4 -4 1 -24 12 -45 11 -21
17 -40 14 -42 -2 -3 4 -25 14 -49 19 -43 19 -43 -6 -101 -14 -31 -30 -55 -35
-51 -6 3 -7 1 -3 -5 8 -14 -63 -174 -75 -167 -4 3 -7 -3 -7 -12 1 -10 -9 -40
-21 -68 -40 -86 -167 -368 -191 -420 -22 -49 -22 -49 -33 -25 -5 14 -38 84
-73 155 -34 72 -73 155 -87 185 -14 30 -47 102 -75 160 -106 224 -162 358
-162 388 0 64 78 117 200 136 51 7 327 5 385 -3z m279 -49 c3 -5 -1 -9 -9 -9
-8 0 -12 4 -9 9 3 4 7 8 9 8 2 0 6 -4 9 -8z m-20 -50 c-5 -4 -12 -11 -15 -15
-3 -5 -9 -2 -12 5 -3 9 3 14 15 15 11 1 16 -1 12 -5z m-26 -57 c-3 -3 -9 2
-12 12 -6 14 -5 15 5 6 7 -7 10 -15 7 -18z m-15 -8 c3 -8 1 -20 -4 -28 -6 -10
-9 -7 -9 14 0 29 5 35 13 14z"/>
<path d="M3491 5214 c0 -11 3 -14 6 -6 3 7 2 16 -1 19 -3 4 -6 -2 -5 -13z"/>
<path d="M3471 5200 c-1 -15 -5 -30 -11 -36 -6 -6 -6 -15 0 -24 7 -10 10 -11
11 -2 2 21 4 27 10 37 4 6 3 19 -2 30 -7 18 -8 17 -8 -5z"/>
<path d="M3330 5589 c0 -5 5 -7 10 -4 6 3 10 8 10 11 0 2 -4 4 -10 4 -5 0 -10
-5 -10 -11z"/>
<path d="M4141 5318 c-27 -70 -333 -772 -523 -1200 l-220 -498 -332 0 -333 0
-40 93 c-207 469 -331 754 -485 1112 -99 231 -189 439 -201 463 -19 40 -22 41
-41 27 -12 -8 -45 -28 -73 -45 -123 -71 -390 -323 -479 -451 l-46 -66 31 -86
c95 -269 411 -1058 551 -1377 16 -36 63 -144 106 -240 42 -96 102 -227 133
-290 31 -63 72 -148 92 -188 l35 -74 174 399 c95 219 190 435 211 481 l38 82
328 0 328 -1 77 -177 c282 -646 338 -776 338 -786 1 -23 316 684 512 1149 121
287 413 1016 423 1055 5 21 -7 41 -74 121 -132 159 -316 323 -508 454 -14 10
-19 21 -16 35 7 26 12 25 53 -5 35 -26 40 -28 40 -20 0 6 -73 55 -83 55 -4 0
-11 -10 -16 -22z m-2241 -63 c-6 -8 -8 -20 -4 -26 4 -8 3 -9 -4 -5 -6 4 -22 2
-34 -5 -14 -7 -10 1 12 19 38 34 49 40 30 17z m-80 -86 c-42 -34 -58 -40 -66
-27 -4 6 -3 8 3 5 5 -4 25 5 43 18 40 30 56 33 20 4z m259 -76 c10 -21 89
-200 174 -398 85 -198 194 -450 242 -560 48 -110 106 -245 130 -300 92 -212
104 -235 122 -235 13 0 24 -15 36 -49 9 -27 25 -52 35 -56 9 -4 62 -11 117
-15 98 -7 97 -7 -53 -8 -84 0 -154 -2 -156 -4 -2 -4 -62 -135 -105 -230 -16
-38 -32 -68 -36 -68 -3 0 1 14 10 30 9 17 11 30 5 30 -5 0 -11 8 -11 18 -1 16
-2 16 -6 -1 -2 -9 -9 -15 -14 -12 -5 4 -5 -5 1 -19 8 -23 7 -26 -18 -31 -15
-3 -54 -15 -87 -26 -80 -27 -104 -32 -140 -33 -16 -1 -34 -6 -40 -13 -8 -9
-14 -9 -27 1 -26 19 -225 425 -388 791 -46 101 -125 298 -200 495 -97 255 -99
275 -33 362 88 116 366 365 410 367 7 1 21 -16 32 -36z m-614 -252 c3 -5 -13
-30 -35 -56 -22 -25 -40 -42 -40 -38 0 5 16 26 35 46 20 21 33 42 30 47 -4 6
-4 10 -1 10 3 0 7 -4 11 -9z m1106 -1718 c-12 -20 -14 -14 -5 12 4 9 9 14 11
11 3 -2 0 -13 -6 -23z"/>
<path d="M2606 3265 c-9 -26 -7 -32 5 -12 6 10 9 21 6 23 -2 3 -7 -2 -11 -11z"/>
<path d="M4420 5146 c0 -2 8 -10 18 -17 15 -13 16 -12 3 4 -13 16 -21 21 -21
13z"/>
<path d="M1037 4058 c-50 -208 -59 -281 -61 -498 -1 -150 2 -210 12 -225 11
-19 12 -18 6 6 -3 15 -1 30 4 33 5 3 12 -8 14 -25 4 -22 -1 -34 -16 -46 -13
-9 -17 -17 -10 -20 7 -2 10 -14 7 -26 -4 -20 -3 -20 7 -4 6 9 9 21 5 26 -3 5
-1 12 5 16 6 4 10 -6 10 -24 0 -18 -7 -35 -17 -41 -12 -7 -14 -13 -7 -16 7 -3
10 -15 7 -27 -4 -18 -3 -19 6 -7 6 8 8 23 5 33 -3 9 -1 17 5 17 6 0 11 -12 11
-26 0 -54 72 -323 117 -434 57 -145 90 -211 165 -330 151 -239 379 -472 623
-634 70 -47 221 -136 230 -136 2 0 -79 163 -179 363 -314 622 -562 1197 -870
2015 -17 44 -32 69 -38 65 -6 -3 -8 -1 -5 5 4 5 3 20 -1 31 -6 17 -14 -6 -35
-91z m-10 -230 c-3 -8 -6 -5 -6 6 -1 11 2 17 5 13 3 -3 4 -12 1 -19z m-10 -65
c-3 -10 -5 -4 -5 12 0 17 2 24 5 18 2 -7 2 -21 0 -30z m269 -194 c78 -201 129
-328 148 -371 22 -51 13 -68 -35 -68 -21 0 -39 5 -39 10 0 6 -6 10 -14 10 -8
0 -23 11 -34 25 -28 35 -42 31 -43 -12 l-1 -38 -9 30 c-37 128 -41 167 -45
375 -2 131 1 209 6 199 5 -9 35 -81 66 -160z m-279 129 c-3 -8 -6 -5 -6 6 -1
11 2 17 5 13 3 -3 4 -12 1 -19z m468 -608 c2 -11 7 -26 11 -33 5 -9 4 -9 -5
-1 -11 10 -18 29 -20 57 -1 5 -5 5 -11 2 -6 -4 -7 1 -3 11 5 15 7 15 15 0 5
-9 11 -25 13 -36z m-5 -44 c0 -3 -4 -8 -10 -11 -5 -3 -10 -1 -10 4 0 6 5 11
10 11 6 0 10 -2 10 -4z m38 -31 c-3 -3 -9 2 -12 12 -6 14 -5 15 5 6 7 -7 10
-15 7 -18z"/>
<path d="M1413 3188 c1 -15 6 -23 11 -18 4 4 4 16 -2 26 -9 16 -10 14 -9 -8z"/>
<path d="M1360 3181 c0 -6 4 -13 10 -16 6 -3 7 1 4 9 -7 18 -14 21 -14 7z"/>
<path d="M5045 4075 c-5 -11 -22 -56 -40 -100 -18 -44 -36 -91 -40 -105 -4
-14 -16 -43 -26 -65 -10 -22 -57 -137 -104 -255 -235 -583 -423 -1002 -661
-1475 -100 -198 -196 -384 -213 -414 -18 -29 -30 -56 -27 -58 3 -3 12 10 21
29 11 22 33 42 63 58 83 44 292 188 381 262 399 336 637 758 716 1267 23 143
30 378 16 501 -12 100 -53 308 -71 354 -8 21 -8 21 -15 1z"/>
<path d="M1018 3135 c2 -14 6 -25 8 -25 2 0 4 11 4 25 0 14 -4 25 -9 25 -4 0
-6 -11 -3 -25z"/>
<path d="M1021 3068 c1 -13 5 -34 9 -48 7 -23 8 -23 9 -3 1 12 4 30 7 40 5 15
4 16 -6 3 -10 -13 -11 -11 -7 8 3 12 1 22 -4 22 -5 0 -9 -10 -8 -22z"/>
<path d="M1061 2924 c-2 -27 33 -114 40 -102 4 7 4 15 0 18 -4 3 -15 25 -24
50 -8 25 -16 40 -16 34z"/>
<path d="M3030 2792 c-59 -133 -375 -831 -440 -972 -35 -74 -77 -167 -95 -206
-19 -41 -28 -71 -21 -71 6 0 40 -8 76 -18 167 -44 256 -56 456 -62 127 -4 237
-1 300 6 95 11 303 54 350 71 l23 9 -36 73 c-59 121 -307 655 -445 958 -71
157 -131 286 -132 287 -1 1 -17 -33 -36 -75z"/>
<path d="M1156 2657 c3 -10 9 -15 12 -12 3 3 0 11 -7 18 -10 9 -11 8 -5 -6z"/>
<path d="M1231 2510 c14 -31 19 -36 19 -24 0 6 -7 19 -16 30 -14 18 -14 18 -3
-6z"/>
</g>
</svg>
